<?xml version="1.0" encoding="utf-8"?>
<!-- Generator: Adobe Illustrator 21.0.0, SVG Export Plug-In . SVG Version: 6.00 Build 0)  -->
<svg version="1.1" id="Layer_1" xmlns="http://www.w3.org/2000/svg" xmlns:xlink="http://www.w3.org/1999/xlink" x="0px" y="0px"
	 viewBox="0 0 450 426.4" style="enable-background:new 0 0 450 426.4;" xml:space="preserve">
<style type="text/css">
	.st0{fill:#E5F3F9;}
	.st1{fill:#BEE1F4;}
	.st2{fill:#83BDF0;}
	.st3{fill:#043059;}
	.st4{fill:#64BB46;}
	.st5{fill:#FFFFFF;}
	.st6{fill:#0569BD;}
	.st7{fill:#9CC0E9;}
	.st8{fill:#3B8DDB;}
	.st9{fill:#F8AC9B;}
	.st10{fill:#010131;}
	.st11{fill:#FF9391;}
	.st12{fill:#250537;}
	.st13{fill:#B5D1FA;}
	.st14{fill:#4B9B2D;}
</style>
<g>
	<g>
		<path class="st0" d="M174.5,74.3L174.5,74.3L174.5,74.3c-1.4-0.7-2.8-1.2-4.3-1.7c-0.1,0-0.2,0-0.2-0.1c-0.4-0.1-0.8-0.2-1.2-0.3
			c-0.1,0-0.3-0.1-0.4-0.1c-0.3-0.1-0.7-0.2-1.1-0.2c-0.2,0-0.3-0.1-0.5-0.1c-0.3-0.1-0.7-0.1-1-0.1c-0.2,0-0.3,0-0.5-0.1
			c-0.4,0-0.7-0.1-1.1-0.1c-0.2,0-0.3,0-0.5,0c-0.5,0-1,0-1.5,0l0,0l0,0c-5.7,0-11,1.7-15.4,4.7c-1.1,0.7-2.1,1.6-3.1,2.5
			s-1.9,1.9-2.7,2.9c-0.3,0.3-0.6,0.7-0.8,1c-0.5,0.7-1,1.4-1.5,2.2c-0.2,0.4-0.5,0.8-0.7,1.2c-0.3,0.5-0.5,1-0.8,1.6
			s-0.5,1.1-0.7,1.7c-0.4,1-0.7,1.9-0.9,2.9c-0.6,2.2-0.9,4.5-0.9,6.9c0,0.4,0,0.9,0,1.3c0,0.1,0,0.3,0,0.4c0,0.3,0,0.6,0.1,0.9
			c0,0.2,0,0.3,0,0.5c0,0.3,0.1,0.6,0.1,0.8c0,0.1,0,0.3,0.1,0.4c0.1,0.3,0.1,0.7,0.2,1c0,0.1,0,0.2,0.1,0.3
			c0.1,0.4,0.2,0.7,0.2,1.1c0,0.2,0.1,0.3,0.1,0.5c0.1,0.2,0.1,0.5,0.2,0.7c0.1,0.2,0.1,0.4,0.2,0.6c0.1,0.2,0.1,0.4,0.2,0.6
			c0.1,0.2,0.1,0.4,0.2,0.6c0.1,0.2,0.2,0.4,0.2,0.6c0.1,0.4,0.3,0.7,0.5,1.1c0.1,0.2,0.1,0.3,0.2,0.5c0.1,0.2,0.2,0.4,0.3,0.6
			c0.1,0.1,0.1,0.3,0.2,0.4c0.1,0.2,0.2,0.4,0.3,0.6c0.1,0.1,0.1,0.3,0.2,0.4c0.1,0.2,0.3,0.4,0.4,0.7c0.1,0.1,0.1,0.2,0.2,0.3
			c0.3,0.5,0.7,1,1,1.5l0,0l0,0c5,6.8,13.1,11.2,22.2,11.2c15.2,0,27.6-12.3,27.6-27.6C189.9,88.2,183.6,78.9,174.5,74.3z"/>
		<path class="st0" d="M93,65.4L93,65.4L93,65.4c-1.9-0.9-3.8-1.7-5.8-2.3c-0.1,0-0.2-0.1-0.3-0.1c-0.5-0.2-1.1-0.3-1.6-0.4
			c-0.2,0-0.4-0.1-0.5-0.1c-0.5-0.1-1-0.2-1.4-0.3c-0.2,0-0.4-0.1-0.7-0.1c-0.5-0.1-0.9-0.1-1.4-0.2c-0.2,0-0.5-0.1-0.7-0.1
			c-0.5-0.1-1-0.1-1.5-0.1c-0.2,0-0.4,0-0.6,0c-0.7,0-1.4-0.1-2.1-0.1c-20.7,0-37.6,16.8-37.6,37.6c0,0.6,0,1.2,0,1.8
			c0,0.2,0,0.4,0,0.6c0,0.4,0.1,0.8,0.1,1.2c0,0.2,0,0.4,0.1,0.6c0,0.4,0.1,0.8,0.1,1.1c0,0.2,0.1,0.4,0.1,0.6
			c0.1,0.5,0.2,0.9,0.2,1.4c0,0.2,0.1,0.3,0.1,0.5c0.1,0.5,0.2,1,0.3,1.5c0.1,0.2,0.1,0.5,0.2,0.7c0.1,0.3,0.2,0.6,0.3,0.9
			s0.2,0.5,0.2,0.8c0.1,0.3,0.2,0.6,0.3,0.8c0.1,0.3,0.2,0.5,0.3,0.8s0.2,0.5,0.3,0.8c0.2,0.5,0.4,1,0.6,1.5
			c0.1,0.2,0.2,0.4,0.3,0.6c0.1,0.3,0.3,0.6,0.4,0.9c0.1,0.2,0.2,0.4,0.3,0.6c0.2,0.3,0.3,0.6,0.5,0.9c0.1,0.2,0.2,0.3,0.3,0.5
			c0.2,0.3,0.4,0.6,0.5,0.9c0.1,0.1,0.2,0.2,0.2,0.4c6.7,10.5,18.4,17.4,31.7,17.4c20.7,0,37.6-16.8,37.6-37.6
			C113.9,84.3,105.4,71.5,93,65.4z"/>
		<path class="st0" d="M138.1,2.1c-0.1,0-0.3-0.1-0.4-0.1c-0.7-0.2-1.4-0.4-2.1-0.6c-0.2-0.1-0.5-0.1-0.7-0.2
			c-0.6-0.1-1.2-0.3-1.8-0.4c-0.3-0.1-0.6-0.1-0.8-0.1c-0.6-0.1-1.2-0.2-1.8-0.3c-0.3,0-0.6-0.1-0.9-0.1c-0.6-0.1-1.2-0.1-1.9-0.2
			c-0.3,0-0.5,0-0.8-0.1c-0.9,0-1.8-0.1-2.7-0.1l0,0l0,0c-9.1,0-17.6,2.5-24.9,6.9C98.6,7.2,98,7.6,97.4,8
			c-3.8,2.6-7.3,5.7-10.2,9.3c-6.8,8.3-11,18.9-11,30.5c0,0.8,0,1.5,0.1,2.3c0,0.2,0,0.5,0,0.7c0,0.5,0.1,1,0.1,1.5
			c0,0.3,0.1,0.5,0.1,0.8c0.1,0.5,0.1,1,0.2,1.5c0,0.3,0.1,0.5,0.1,0.8c0.1,0.6,0.2,1.2,0.3,1.8c0,0.2,0.1,0.4,0.1,0.6
			c0.1,0.6,0.3,1.2,0.4,1.9c0.1,0.3,0.2,0.6,0.2,0.9c0.1,0.4,0.2,0.8,0.3,1.2c0.1,0.3,0.2,0.6,0.3,1c0.1,0.4,0.2,0.7,0.4,1.1
			c0.1,0.3,0.2,0.7,0.4,1c0.1,0.3,0.3,0.7,0.4,1c0.3,0.6,0.5,1.3,0.8,1.9c0.1,0.3,0.2,0.5,0.4,0.8c0.2,0.4,0.4,0.7,0.6,1.1
			c0.1,0.2,0.2,0.5,0.4,0.7c0.2,0.4,0.4,0.8,0.6,1.1c0.1,0.2,0.2,0.4,0.4,0.6c0.2,0.4,0.4,0.8,0.7,1.1c0.1,0.2,0.2,0.3,0.3,0.5
			C92.3,87.1,107.3,96,124.3,96c26.5,0,48-21.5,48-48C172.3,26.4,157.9,8.1,138.1,2.1z"/>
		<polygon class="st1" points="162.3,101.7 126.4,121.2 124.3,61.9 121.8,132.9 78.3,99.1 121.6,139.1 119.8,245.3 128.8,245.3 
			126.6,126.8 		"/>
	</g>
	<g>
		<path class="st0" d="M318.8,176.4c3.2,3.1,7.8,4.7,12.3,4.6c5.2-0.2,10.2-2.5,14.2-5.8c0.1-0.1,0.2-0.2,0.3-0.3
			c-1,0-1.9-0.1-2.9-0.2c-4.4-0.4-9-0.9-12.8-2.9c6.7,1.1,13.8,0.5,20.2-1.7c2.4-3,4.2-6.4,5.5-10c-0.8,0.5-1.7,1-2.5,1.3
			c-5.8,2.7-12.4,2.7-18.7,1.7c8.1-2,15.8-5.1,23-9.3c0.5-3,0.7-6,0.4-9c-0.8,0.8-1.5,1.7-2.2,2.6c-1.3,1.8-2.3,3.8-4,5.2
			c-2.3,1.9-5.5,2.1-8.5,2.2c-1.5,0-3,0.1-4.6,0c1.8-0.6,3.6-1.3,5.4-2.1c1.6-0.6,3.1-1.3,4.6-2.2c3.7-2.2,6.4-5.5,8.9-9.1
			c-0.3-1.9-0.8-3.7-1.5-5.5c-3.9,3.7-8.5,6.7-13.5,8.7c4.5-3.4,8.7-7.3,12.2-11.6c-0.7-1.6-1.6-3-2.6-4.5
			c-3.3,4.1-7.7,7.3-12.5,9.4c4.1-3.4,7.6-7.7,10.2-12.4c-0.9-1-1.8-2-2.7-2.9c-0.8,1-1.7,1.9-2.7,2.7c-0.8,0.7-1.8,1.3-2.7,1.8
			c1.4-1.9,2.6-4,3.6-6.2c-1.3-1.1-2.6-2.2-4-3.1L318.8,176.4z"/>
		<path class="st0" d="M318.8,176.4c-2.3,0.6-6.5,0.1-8.7-0.9c-2.4-1.1-4.7-2.7-6.5-4.7c-3.5-3.9-4.9-9.3-5.4-14.5
			c1.9,1.7,3.9,3.2,6.2,4.4c2.3,1.2,4.8,2,7.3,2.9c-2.5-2.5-4.7-5.3-7.5-7.4c-1-0.8-2-1.5-2.9-2.3c-1.3-1.1-2.3-2.4-3.2-3.9
			c0.3-4.1,1.2-8.2,2.9-12c0.6,1.9,1.5,3.7,2.3,5.5c1,2,2.1,4,3.6,5.5c1.2,1.2,2.6,2.1,4.1,2.8c-0.9-0.9-1.7-1.9-2.4-3
			c-3.1-4.7-4-10.4-4.7-16c1.2-1.7,2.7-3.2,4.2-4.6c0.4,3.6,1.4,7.1,3,10.4c1.5,3,3.5,5.7,5.9,8c-0.5-0.9-0.9-1.8-1.3-2.7
			c-1.3-2.8-2.5-5.7-3.3-8.7c-0.5-1.8-0.8-3.7-1-5.6c-0.1-0.9-0.2-1.9-0.2-2.8c0-0.4,0-0.7,0.1-1.1c1.7-1.2,3.5-2.3,5.4-3.2
			c-0.4,2.5-0.5,4.9,0,7.4c0.3,1.5,0.8,2.9,1.4,4.3c1.2,2.9,2.7,5.6,4.7,8.1c-3.2-6.7-4.1-14.6-1.8-21.6c1.4-0.5,2.8-0.9,4.2-1.2
			c-0.5,2.9-0.5,5.9,0.1,8.8c0.2-3.2,1.1-6.4,2.6-9.2c1.6-0.2,3.3-0.4,4.9-0.5c-0.3,1.8-0.4,3.7-0.2,5.6c0.4-2,1.1-3.9,2.1-5.7
			c2-0.1,4.1-0.3,6.3-0.5L318.8,176.4z"/>
		<path class="st1" d="M326,167.3c1.2,0.1,2.3,0.2,3.5,0.2c2.3,0.1,4.7,0.2,7,0.1c2.3-0.1,4.7-0.2,7-0.4c2.3-0.3,4.6-0.6,6.9-1.1
			c-2.3,0.5-4.6,0.8-6.9,1s-4.6,0.2-6.9,0.2s-4.6-0.1-6.9-0.3c-1.2-0.1-2.3-0.2-3.5-0.3l-2.6-0.3l2.5-6.9c1.5,0.1,3.1,0.2,4.6,0.1
			c1.7-0.1,3.4-0.2,5.1-0.4c3.4-0.4,6.7-1.1,10-2.1c-3.3,0.9-6.6,1.5-10,1.8c-1.7,0.2-3.4,0.2-5.1,0.2c-1.5,0-2.9-0.1-4.3-0.3
			l2.4-6.5c2.1-0.1,4.1-0.2,6.1-0.7c2.1-0.5,4.3-1.1,6.3-1.9c2-0.8,4-1.7,5.9-2.8s3.7-2.3,5.5-3.6c-1.7,1.3-3.6,2.5-5.5,3.5
			s-3.9,1.9-5.9,2.7s-4.1,1.3-6.3,1.7c-1.9,0.4-3.9,0.5-5.8,0.5l2.5-6.9c1.7-0.4,3.5-0.8,5.1-1.5c1.7-0.7,3.4-1.4,5-2.4
			c1.6-0.9,3.2-1.9,4.6-3c1.5-1.1,2.9-2.3,4.2-3.6c-1.3,1.3-2.8,2.4-4.3,3.5s-3.1,2-4.7,2.9s-3.3,1.6-5,2.2
			c-1.5,0.6-3.1,0.9-4.7,1.2l2.6-7.2c2.1-1.1,4.1-2.4,6-3.9s3.7-3.2,5.2-5c-1.6,1.8-3.4,3.4-5.3,4.9c-1.8,1.4-3.7,2.5-5.7,3.6
			l4.6-12.5l-6.6,16.5c-0.6-1.2-1.2-2.4-1.6-3.7c-0.3-0.7-0.5-1.5-0.7-2.2c-0.2-0.8-0.4-1.5-0.5-2.3c-0.2-1.5-0.4-3.1-0.4-4.6
			c0-1.5,0.1-3.1,0.4-4.6c-0.3,1.5-0.4,3.1-0.5,4.6c0,1.6,0.1,3.1,0.3,4.6c0.1,0.8,0.3,1.5,0.4,2.3c0.2,0.8,0.4,1.5,0.6,2.2
			c0.4,1.4,1.1,2.8,1.7,4.1l-2.6,6.5c-1.2-1.6-2.3-3.2-3.1-5c-1-1.9-1.8-4-2.4-6.1s-1-4.3-1.2-6.4c-0.2-2.2-0.2-4.4,0.1-6.6
			c-0.4,2.2-0.4,4.4-0.3,6.6s0.5,4.4,1.1,6.5s1.3,4.2,2.3,6.2c0.9,1.9,2.1,3.7,3.3,5.4l-2.4,6l-0.8-0.8l-0.6-0.7l-0.6-0.7l-1.2-1.4
			l-1.1-1.5c-1.4-2-2.7-4.1-3.8-6.3c-1.1-2.2-2-4.5-2.8-6.9s-1.4-4.8-1.8-7.2c0.3,2.5,0.9,4.9,1.6,7.3c0.7,2.4,1.6,4.7,2.6,7
			s2.3,4.4,3.7,6.5l1.1,1.5l1.2,1.5l0.6,0.7l0.6,0.7l1,1l-1.5,3.6c-1.7-1.1-3.4-2.2-4.9-3.5c-1.7-1.5-3.3-3-4.7-4.8
			c-1.5-1.7-2.8-3.5-4.1-5.4c-1.2-1.9-2.4-3.8-3.4-5.9c0.9,2.1,2,4,3.2,6c1.2,1.9,2.5,3.8,3.9,5.5c1.4,1.8,3,3.4,4.7,4.9
			c1.5,1.4,3.2,2.7,5,3.8l-1.7,4.1c-0.8-0.3-1.6-0.7-2.3-1c-1-0.5-2-0.9-2.9-1.5c-1.9-1-3.8-2.1-5.6-3.3c-1.8-1.2-3.6-2.5-5.2-3.9
			c-1.7-1.4-3.3-2.9-4.7-4.5c1.4,1.7,3,3.2,4.6,4.6c1.6,1.4,3.4,2.8,5.2,4.1c1.8,1.2,3.6,2.5,5.5,3.5c0.9,0.6,1.9,1,2.9,1.6
			c0.8,0.4,1.6,0.8,2.3,1.1l-3.4,8.5c-1.6-0.2-3.3-0.6-4.8-1.1c-1.8-0.7-3.5-1.6-5.1-2.7c-1.6-1.1-3.1-2.3-4.6-3.6
			c-1.4-1.3-2.8-2.7-4-4.2c1.2,1.6,2.5,3,3.9,4.4s2.9,2.6,4.5,3.8c1.6,1.1,3.3,2.1,5.1,2.9c1.5,0.6,3.1,1.1,4.8,1.3l-6,14.8l2.1,0.8
			l5.5-15.1c1.2,0.6,2.4,1.1,3.6,1.5c1.5,0.5,3.1,0.9,4.6,1.2c1.6,0.3,3.2,0.5,4.7,0.6c1.6,0.1,3.2,0,4.8-0.2
			c-1.6,0.1-3.2,0.1-4.7,0c-1.6-0.1-3.1-0.4-4.7-0.7c-1.5-0.4-3.1-0.8-4.5-1.4c-1.2-0.5-2.4-1-3.5-1.7l2.1-5.9L326,167.3z"/>
	</g>
	<g>
		<path class="st0" d="M58.8,260.7c3.1-3.2,4.6-7.9,4.4-12.3c-0.2-5.2-2.6-10.2-6.1-14.1c-0.1-0.1-0.2-0.2-0.3-0.3
			c0,1-0.1,1.9-0.1,2.9c-0.3,4.4-0.7,9-2.7,12.8c1-6.8,0.3-13.8-2-20.2c-3.1-2.3-6.5-4.1-10.1-5.4c0.5,0.8,1,1.6,1.4,2.5
			c2.8,5.7,2.9,12.3,2.1,18.7c-2.1-8-5.4-15.7-9.7-22.8c-3-0.5-6-0.6-9-0.3c0.8,0.8,1.7,1.5,2.6,2.2c1.8,1.3,3.9,2.2,5.3,3.9
			c1.9,2.3,2.2,5.5,2.3,8.5c0.1,1.5,0.1,3,0.1,4.6c-0.7-1.8-1.4-3.6-2.1-5.3c-0.7-1.6-1.4-3.1-2.3-4.6c-2.3-3.6-5.7-6.3-9.2-8.7
			c-1.9,0.4-3.7,0.9-5.5,1.6c3.8,3.8,6.8,8.4,9,13.3c-3.4-4.5-7.4-8.5-11.8-12c-1.6,0.8-3,1.7-4.4,2.7c4.1,3.3,7.5,7.5,9.6,12.4
			c-3.5-4.1-7.8-7.5-12.6-9.9c-1,0.9-2,1.8-2.9,2.8c1,0.8,1.9,1.7,2.7,2.6c0.7,0.8,1.3,1.7,1.9,2.7c-1.9-1.4-4-2.6-6.2-3.5
			c-1.1,1.3-2.1,2.6-3,4L58.8,260.7z"/>
		<path class="st0" d="M58.8,260.7c0.7,2.3,0.2,6.5-0.8,8.7c-1.1,2.5-2.6,4.7-4.6,6.6c-3.9,3.6-9.2,5.1-14.4,5.6
			c1.7-1.9,3.2-4,4.3-6.3c1.2-2.4,2-4.9,2.7-7.4c-2.4,2.5-5.2,4.8-7.3,7.6c-0.8,1-1.4,2-2.2,3c-1.1,1.3-2.4,2.4-3.8,3.3
			c-4.2-0.2-8.3-1-12-2.7c1.9-0.6,3.7-1.5,5.4-2.4c2-1,3.9-2.1,5.5-3.7c1.2-1.2,2-2.7,2.7-4.2c-0.9,0.9-1.9,1.7-2.9,2.4
			c-4.6,3.2-10.3,4.2-15.9,5c-1.7-1.2-3.2-2.6-4.6-4.1c3.6-0.4,7.1-1.5,10.3-3.2c2.9-1.5,5.6-3.6,7.9-6c-0.9,0.5-1.8,0.9-2.6,1.3
			c-2.8,1.3-5.6,2.6-8.6,3.5c-1.8,0.5-3.7,0.9-5.6,1.1c-0.9,0.1-1.9,0.3-2.8,0.3c-0.4,0-0.7,0-1.1-0.1c-1.2-1.7-2.3-3.5-3.3-5.3
			c2.5,0.4,4.9,0.4,7.4-0.2c1.5-0.3,2.9-0.9,4.3-1.5c2.8-1.3,5.6-2.8,8-4.8c-6.6,3.3-14.5,4.3-21.6,2.2c-0.5-1.4-0.9-2.8-1.3-4.2
			c2.9,0.5,5.9,0.4,8.8-0.2c-3.2-0.2-6.4-1-9.3-2.5c-0.3-1.6-0.4-3.2-0.6-4.9c1.8,0.3,3.7,0.3,5.6,0.1c-2-0.3-3.9-1-5.7-2
			c-0.2-2-0.3-4.1-0.6-6.3L58.8,260.7z"/>
		<path class="st1" d="M49.7,253.7c0.1-1.2,0.2-2.3,0.2-3.5c0.1-2.3,0.1-4.7,0-7s-0.3-4.6-0.5-7c-0.3-2.3-0.7-4.6-1.3-6.9
			c0.5,2.3,0.8,4.6,1.1,6.9c0.2,2.3,0.3,4.6,0.4,6.9c0,2.3,0,4.6-0.2,6.9c-0.1,1.2-0.2,2.3-0.3,3.5l-0.3,2.6l-6.9-2.4
			c0.1-1.5,0.1-3.1,0.1-4.6c-0.1-1.7-0.2-3.4-0.5-5.1c-0.5-3.4-1.3-6.7-2.3-9.9c0.9,3.3,1.6,6.6,1.9,10c0.2,1.7,0.3,3.4,0.3,5.1
			c0,1.5-0.1,2.9-0.2,4.3l-6.6-2.3c-0.1-2.1-0.3-4.1-0.8-6.1c-0.5-2.1-1.1-4.2-2-6.3c-0.8-2-1.8-4-2.9-5.9s-2.3-3.7-3.7-5.4
			c1.3,1.7,2.5,3.6,3.6,5.5s2,3.9,2.8,5.9s1.4,4.1,1.8,6.2c0.4,1.9,0.6,3.9,0.6,5.8l-6.9-2.4c-0.4-1.7-0.9-3.4-1.5-5.1
			c-0.7-1.7-1.5-3.4-2.4-5s-2-3.1-3.1-4.6s-2.3-2.8-3.7-4.1c1.3,1.3,2.5,2.7,3.6,4.2s2.1,3,3,4.6s1.7,3.3,2.3,5
			c0.6,1.5,1,3.1,1.3,4.7l-7.2-2.5c-1.2-2.1-2.5-4.1-4-5.9c-1.6-1.9-3.2-3.6-5.1-5.1c1.8,1.6,3.5,3.3,5,5.2c1.4,1.8,2.6,3.6,3.7,5.6
			l-12.6-4.4l16.6,6.4c-1.2,0.7-2.4,1.3-3.7,1.7c-0.7,0.3-1.5,0.5-2.2,0.7c-0.8,0.2-1.5,0.4-2.3,0.5c-1.5,0.3-3.1,0.4-4.6,0.5
			c-1.5,0-3.1-0.1-4.6-0.3c1.5,0.3,3.1,0.4,4.6,0.4c1.6,0,3.1-0.1,4.6-0.4c0.8-0.1,1.5-0.3,2.3-0.5c0.7-0.2,1.5-0.4,2.2-0.7
			c1.4-0.5,2.7-1.1,4.1-1.8l6.6,2.5c-1.6,1.2-3.2,2.3-4.9,3.2c-1.9,1.1-3.9,1.9-6,2.5c-2.1,0.7-4.2,1.1-6.4,1.3s-4.4,0.3-6.6,0
			c2.2,0.3,4.4,0.3,6.6,0.2c2.2-0.2,4.4-0.6,6.5-1.2s4.2-1.4,6.2-2.4c1.9-0.9,3.6-2.1,5.3-3.4l6,2.3l-0.8,0.8l-0.6,0.7l-0.7,0.6
			l-1.4,1.2l-1.5,1.1c-2,1.5-4.1,2.8-6.3,3.9s-4.5,2.1-6.8,2.9s-4.7,1.5-7.2,1.9c2.5-0.4,4.9-1,7.2-1.7c2.4-0.8,4.7-1.7,6.9-2.8
			c2.2-1.1,4.4-2.3,6.4-3.8l1.5-1.1l1.4-1.2l0.7-0.6l0.7-0.7l1-1l3.6,1.4c-1,1.7-2.2,3.4-3.5,4.9c-1.4,1.7-3,3.3-4.7,4.8
			s-3.4,2.9-5.3,4.2c-1.9,1.3-3.8,2.4-5.8,3.5c2-1,4-2.1,5.9-3.3c1.9-1.2,3.7-2.6,5.4-4c1.7-1.4,3.4-3,4.9-4.7
			c1.4-1.5,2.6-3.3,3.7-5l4.2,1.6c-0.3,0.8-0.7,1.6-1,2.3c-0.5,1-0.9,2-1.4,2.9c-1,1.9-2.1,3.8-3.2,5.7c-1.2,1.8-2.4,3.6-3.8,5.3
			c-1.4,1.7-2.8,3.3-4.4,4.8c1.7-1.4,3.1-3,4.6-4.7c1.4-1.7,2.7-3.4,4-5.2c1.2-1.8,2.4-3.7,3.4-5.6c0.5-0.9,1-1.9,1.5-2.9
			c0.4-0.8,0.7-1.6,1.1-2.4l8.5,3.3c-0.2,1.6-0.5,3.3-1.1,4.8c-0.7,1.8-1.6,3.5-2.6,5.2c-1.1,1.6-2.2,3.2-3.5,4.6s-2.7,2.8-4.2,4.1
			c1.5-1.2,3-2.5,4.3-3.9s2.6-2.9,3.7-4.5c1.1-1.6,2-3.3,2.8-5.2c0.6-1.5,1-3.1,1.2-4.8l14.9,5.7l0.8-2.1L56,258.8
			c0.6-1.2,1.1-2.4,1.5-3.6c0.5-1.5,0.9-3.1,1.2-4.6c0.3-1.6,0.4-3.2,0.5-4.8c0-1.6,0-3.2-0.2-4.8c0.2,1.6,0.2,3.2,0.1,4.7
			c-0.1,1.6-0.3,3.1-0.7,4.7c-0.3,1.5-0.8,3.1-1.3,4.5c-0.4,1.2-1,2.4-1.6,3.6l-5.9-2L49.7,253.7z"/>
	</g>
	<path id="XMLID_1957_" class="st0" d="M250.7,344.1c-47.4,27.4-124.6,27.2-172.3-0.3s-48-72.1-0.5-99.5s124.6-27.2,172.3,0.3
		C297.9,272.2,298.2,316.7,250.7,344.1z"/>
	<path id="XMLID_1956_" class="st0" d="M374.3,295.2c-47.4,27.4-124.6,27.2-172.3-0.3c-47.7-27.6-48-72.1-0.5-99.5
		s124.6-27.2,172.3,0.3C421.5,223.3,421.7,267.9,374.3,295.2z"/>
	<path id="XMLID_1954_" class="st0" d="M404.6,372c-27.1,15.6-71.1,15.5-98.3-0.2s-27.4-41.1-0.3-56.8c27.1-15.6,71.1-15.5,98.3,0.2
		C431.5,330.9,431.6,356.4,404.6,372z"/>
	<g>
		<path class="st0" d="M412.9,299.4c-1.2,2-2.4,3.9-3.7,5.8c-0.3,0.5-0.9,0.9-0.9,1.5c0.1,0.7,1.2,1.7,1.6,2.3
			c0.6,0.7,1.5,2.4,2.3,2.9c-1-0.5-3.1-2-4.5-2c0.1,0.9,0.7,1.9,1,2.8c-0.9-0.7-1.6-1.1-2.7-1.3c0.2,0.9-0.4,2.1-0.5,3
			c-0.9,4.5-1.6,9.9,0.4,14.1c2.2,4.6,8.4,3.9,12.5,2.9c2.1-0.5,4.2-1.4,6-2.6c0.6-0.5,2.8-2.7,3.7-2c-0.3-0.9-0.6-1.8-0.7-2.7
			c0.6,0.4,1.5,0.3,1.9,0.8c1-0.7,1.6-2,2.8-2.6c-0.9-1-1.2-2.6-2-3.7c1.1,0.1,2.4,0.4,3.5,0.9c0.3-0.7,0.8-1.4,1.3-2
			c2-2.7,3.7-5.8,5.2-8.8c0.9-1.9,2-3.6,3.1-5.3c-0.9-0.7-1.6-2-2.5-2.8c-1.1-1.1-2.2-2.2-3.2-3.3c0.6,0,1.1,0.3,1.7,0.5
			c1.9,0.5,4,1,5.9,1.5c0.1-0.8,3.8-7.7,3.4-7.9c-1.2-0.7-2.7-1.5-3.7-2.3c1.2,0.3,2.6,0,3.8,0c-0.6-1.4-3.3-2.7-4.3-3.8
			c1-0.3,2,0.2,3,0.3c0.7,0.1,1.4-0.1,2,0.2c0.3-2.1,0.3-4.1,0.4-6.2c0.1-1.3,0.5-3.7,0-4.9c-0.4-0.9-1.8-1.3-2.2-2.1
			c0.6-0.3,1.2-0.2,1.8-0.1c0-0.5-0.4-7.3-0.8-7.2c-4.2,0.6-8,1.3-11.7,3.4c-0.7,0.4-1.5,0.6-1.7,1.3c-0.4,1.4,0.7,3.4,0.8,4.8
			c-1.2-1.3-2.9-2.2-4.3-3.3c-1.5,1.4-2.9,2.5-4.1,4.3c-1,1.5-2.2,2.9-3.1,4.4c-0.3,0.6-1.1,1.5-1.3,2.1c-0.3,1.6,2.8,4.9,3.9,6.1
			c-1.7-0.1-3.3-1.7-5.1-2c-1.9-0.3-1.9,1.8-3.1,2.4c0.7,0.1,1.6,1.3,2.1,1.9c-0.8-0.1-1.7-0.6-2.5-0.3c0.7,1.6,1.5,3.1,2.6,4.5
			c-1.1,0-2.1-0.8-3.1-1c-0.5-0.1-1.1-0.1-1.5-0.2c-0.8,2-2.2,3.7-3.3,5.5C413,299.2,413,299.3,412.9,299.4z"/>
		<g>
			<path class="st1" d="M445.6,270.2c-2.3,2.2-3.6,6.2-4.9,9c-1.4,3.1-2.8,6.3-4.2,9.4c-2.7,5.8-5.5,11.4-9.2,16.7
				c-7.4,10.7-14.1,22.2-23.1,31.7c-0.6,0.6-1.8-0.3-1.2-1c8.4-10.4,16.5-20.9,24.1-31.9c3.9-5.6,6.8-11.8,9.7-18
				c2.6-5.5,5-11.4,8.2-16.5C445.3,269.1,446,269.7,445.6,270.2L445.6,270.2z"/>
		</g>
	</g>
	<path id="XMLID_1953_" class="st0" d="M220.5,414.8c-27.1,15.6-71.1,15.5-98.3-0.2s-27.4-41.1-0.3-56.8
		c27.1-15.6,71.1-15.5,98.3,0.2S247.5,399.2,220.5,414.8z"/>
	<path id="XMLID_1952_" class="st0" d="M362.2,405.6c-6,3.5-15.7,3.4-21.7,0c-6-3.5-6-9.1-0.1-12.5c6-3.5,15.7-3.4,21.7,0
		S368.1,402.1,362.2,405.6z"/>
	<path id="XMLID_1951_" class="st0" d="M421.2,278.1c-2.6,1.5-6.9,1.5-9.5,0s-2.7-4,0-5.5c2.6-1.5,6.9-1.5,9.5,0
		C423.8,274.1,423.8,276.6,421.2,278.1z"/>
	<g>
		<path class="st0" d="M85.6,345.1c2.3,0.1,4.6,0.2,6.9,0.2c0.6,0,1.3-0.2,1.7,0.1c0.6,0.4,0.8,1.9,1,2.6c0.3,0.9,1.1,2.6,1,3.5
			c0.1-1.1,0.1-3.7,0.9-4.9c0.7,0.7,1.2,1.7,1.8,2.4c-0.1-1.1,0-1.9,0.4-2.9c0.6,0.7,1.9,0.9,2.8,1.2c4.2,1.7,9,4.3,11.4,8.3
			c2.6,4.4-1.5,9.1-4.7,12c-1.6,1.4-3.5,2.7-5.5,3.5c-0.7,0.3-3.8,0.7-3.8,1.9c-0.6-0.7-1.1-1.5-1.8-2.1c0,0.7-0.6,1.4-0.4,2
			c-1.2,0.4-2.5,0.2-3.7,0.8c-0.3-1.3-1.5-2.4-1.9-3.7c-0.5,1-1,2.2-1.2,3.4c-0.8-0.2-1.6-0.1-2.4-0.1c-3.4,0.1-6.9-0.2-10.2-0.7
			c-2.1-0.3-4.1-0.3-6.1-0.4c-0.1-1.2-0.7-2.5-1-3.6c-0.3-1.5-0.6-3-1-4.5c-0.4,0.5-0.4,1.1-0.6,1.7c-0.6,1.9-1.4,3.9-2.1,5.7
			c-0.7-0.4-8.5-1.2-8.4-1.7c0.1-1.3,0.3-3.1,0.1-4.3c-0.5,1.2-1.4,2.1-2.2,3.2c-0.8-1.3-0.3-4.2-0.6-5.7c-0.8,0.6-1,1.8-1.5,2.6
			c-0.3,0.6-0.9,1.1-0.9,1.8c-1.9-0.9-3.6-2.1-5.3-3.2c-1.1-0.7-3.3-1.6-4-2.8c-0.5-0.8-0.1-2.2-0.5-3c-0.6,0.3-0.8,0.9-1.1,1.4
			c-0.4-0.3-5.8-4.4-5.5-4.8c2.8-3.1,5.6-5.9,9.4-7.8c0.7-0.3,1.4-0.9,2.1-0.7c1.4,0.5,2.4,2.5,3.5,3.3c-0.4-1.7-0.2-3.7-0.3-5.4
			c2-0.5,3.7-0.9,5.8-1c1.8,0,3.7-0.2,5.4-0.1c0.6,0.1,1.9-0.1,2.5,0.2c1.5,0.6,2.5,5.1,2.9,6.7c0.8-1.5,0.5-3.7,1.3-5.4
			c0.9-1.7,2.5-0.6,3.7-1.1c-0.4,0.7,0.2,2.1,0.4,2.8c0.4-0.7,0.4-1.8,1.1-2.3c0.9,1.5,1.7,3,2.2,4.7c0.6-0.9,0.5-2.1,0.9-3.1
			c0.2-0.5,0.5-0.9,0.7-1.4c2.1,0.4,4.3,0.3,6.4,0.4C85.4,345.1,85.5,345.1,85.6,345.1z"/>
		<g>
			<path class="st1" d="M43.1,355.5c3.1-0.7,7.1,0.5,10.2,1.1c3.4,0.6,6.7,1.2,10.1,1.8c6.3,1.1,12.6,1.9,18.9,1.9
				c13,0,26.3,0.9,39.2-1.2c0.9-0.1,0.8-1.7-0.1-1.6c-13.3,1-26.6,1.8-39.9,1.9c-6.8,0-13.6-1-20.3-2.1c-6-1-12.2-2.3-18.3-2.5
				C42.4,354.7,42.4,355.7,43.1,355.5L43.1,355.5z"/>
		</g>
	</g>
</g>
<g>
	<path class="st2" d="M232,76.9h-52.8c-13.7,0-24.9,11.1-24.9,24.9l0,0h102.6l0,0C256.8,88,245.7,76.9,232,76.9z"/>
	<rect x="203.4" y="18.9" class="st2" width="1" height="66"/>
</g>
<rect x="20.3" y="117.5" transform="matrix(-1 -1.224647e-16 1.224647e-16 -1 263.6017 239.893)" class="st3" width="223" height="4.8"/>
<g>
	<g>
		<g>
			<path class="st3" d="M57.3,146.3c-0.2-0.9,0.2-1.8,1-2.3l20.1-11.3l18.7,11.3c0.8,0.5,1.1,1.4,0.9,2.3c-0.2,0.9-1,1.5-1.9,1.5
				H59.3C58.3,147.8,57.6,147.2,57.3,146.3z M58.9,145.1c-0.4,0.2-0.4,0.6-0.4,0.9c0.1,0.3,0.3,0.6,0.8,0.6H96
				c0.4,0,0.7-0.3,0.8-0.6c0.1-0.3,0-0.7-0.4-0.9l-18.1-11L58.9,145.1z"/>
			<rect x="77.8" y="120.3" class="st3" width="1.2" height="13.2"/>
		</g>
		<g>
			<path class="st3" d="M91.4,146.3c-0.2-0.9,0.2-1.8,1-2.3l20.1-11.3l18.7,11.3c0.8,0.5,1.1,1.4,0.9,2.2c-0.2,0.9-1,1.5-1.9,1.5
				H93.3C92.4,147.8,91.6,147.2,91.4,146.3z M92.9,145.1c-0.4,0.2-0.5,0.6-0.4,0.9c0.1,0.3,0.3,0.6,0.8,0.6h36.8
				c0.4,0,0.7-0.3,0.8-0.6c0.1-0.3,0-0.7-0.3-0.9l-18.1-11L92.9,145.1z"/>
			<rect x="111.9" y="120.3" class="st3" width="1.2" height="13.2"/>
		</g>
		<g>
			<path class="st3" d="M126.6,146.3c-0.2-0.9,0.2-1.8,1-2.3l20.1-11.3l18.7,11.3c0.8,0.5,1.1,1.4,0.9,2.2c-0.2,0.9-1,1.5-1.9,1.5
				h-36.8C127.6,147.8,126.8,147.2,126.6,146.3z M128.1,145.1c-0.4,0.2-0.4,0.6-0.4,0.9c0.1,0.3,0.3,0.6,0.8,0.6h36.8
				c0.4,0,0.7-0.3,0.8-0.6c0.1-0.3,0-0.7-0.4-0.9l-18.1-11L128.1,145.1z"/>
			<rect x="147" y="120.3" class="st3" width="1.2" height="13.2"/>
		</g>
		<path class="st4" d="M90.3,140.3c0,0-10.1,24.5-25.2,0.6c0,0-7.8,1.7-10,4.9c-2.2,3.2-11.7,20.9-11.7,20.9s10.3,7.3,14.6,6.7
			l4.3-6.2c0,0,1.1,10.5,4.6,11.7c0,0-7.5,9.8-8.9,16.6c-1.4,6.8-14.6,79.1-14.6,79.1s1.6,5.1,14.6,5.9c13,0.8,11.7-5.9,25.3-3.8
			c13.5,2.1,15.7,1.3,18.2,0.8c0,0-4.5-90.9-12.8-97.9c0,0,5.7-6.7,7-15.6l1.9,11.4c0,0,11.1,1,18.1-6.3c0,0-10.8-22.5-16.5-25.7
			C93.3,140.5,90.3,140.3,90.3,140.3z"/>
		<ellipse transform="matrix(0.9061 -0.423 0.423 0.9061 -71.1188 53.9389)" class="st5" cx="86" cy="187.2" rx="3.9" ry="3.9"/>
		<ellipse transform="matrix(0.9061 -0.423 0.423 0.9061 -62.8919 49.5767)" class="st5" cx="80.3" cy="166.5" rx="3.9" ry="3.9"/>
		<path class="st6" d="M104.8,137.1c0,0-12.4,2.7-21,16c-8.5,13.3-9.9,57.4-9.9,57.4h10.3c0,0,4.8-29.8,8.1-36.3L90,207.4
			c0,0,19.8,6.7,40.5,1.6l2.6-40.6c0,0,3.3,40.6,3,48.9h9.3c0,0,1.1-58.4-9.3-68.6c-10.4-10.2-14.8-10.8-14.8-10.8
			S111.8,146.3,104.8,137.1z"/>
		<path class="st1" d="M157.9,139.7c0,0-5.2,4.4-11,3.6c-5.8-0.8-10.4-3.6-10.4-3.6s-10.9,3-12.6,6.6c-1.7,3.6-7,20.9-7,20.9
			s5.8,4.9,11,3.6l3.5-8l-2.5,34.3c0,0,16.3,4.4,33,0l-1.1-33.6l3,7.6c0,0,6.6,0.6,10.6-3.8c0,0-4.9-22-6.6-23.1
			C166.3,143.1,157.9,139.7,157.9,139.7z"/>
		<g>
			<path class="st3" d="M161,146.3c-0.2-0.9,0.2-1.8,1-2.3l20.1-11.3l18.7,11.3c0.8,0.5,1.1,1.4,0.9,2.2c-0.2,0.9-1,1.5-1.9,1.5H163
				C162.1,147.8,161.3,147.2,161,146.3z M162.6,145.1c-0.4,0.2-0.4,0.6-0.4,0.9c0.1,0.3,0.3,0.6,0.8,0.6h36.8c0.4,0,0.7-0.3,0.8-0.6
				c0.1-0.3,0-0.7-0.3-0.9l-18.1-11L162.6,145.1z"/>
			<rect x="181.5" y="120.3" class="st3" width="1.2" height="13.2"/>
		</g>
		<path class="st3" d="M121.6,251.7h37.6c2.2,0,4,1.8,4,4l0,0c0,2.2-1.8,4-4,4h-37.6c-2.2,0-4-1.8-4-4l0,0
			C117.6,253.5,119.4,251.7,121.6,251.7z"/>
		<path class="st4" d="M121.6,243.6h37.6c2.2,0,4,1.8,4,4l0,0c0,2.2-1.8,4-4,4h-37.6c-2.2,0-4-1.8-4-4l0,0
			C117.6,245.4,119.4,243.6,121.6,243.6z"/>
		<path class="st6" d="M121.6,235.5h37.6c2.2,0,4,1.8,4,4l0,0c0,2.2-1.8,4-4,4h-37.6c-2.2,0-4-1.8-4-4l0,0
			C117.6,237.3,119.4,235.5,121.6,235.5z"/>
		<circle class="st5" cx="56.9" cy="243.6" r="3.9"/>
		<circle class="st5" cx="72.6" cy="228.6" r="3.9"/>
		<ellipse transform="matrix(0.9061 -0.423 0.423 0.9061 -78.7149 46.9525)" class="st5" cx="66.4" cy="200.8" rx="3.9" ry="3.9"/>
		<ellipse transform="matrix(0.9061 -0.423 0.423 0.9061 -81.5463 56.2469)" class="st5" cx="86" cy="211.9" rx="3.9" ry="3.9"/>
		<ellipse transform="matrix(0.9061 -0.423 0.423 0.9061 -94.388 61.9668)" class="st5" cx="92.4" cy="243.6" rx="3.9" ry="3.9"/>
		<ellipse transform="matrix(0.9061 -0.423 0.423 0.9061 -61.3085 40.568)" class="st5" cx="60.7" cy="158.4" rx="3.9" ry="3.9"/>
		<ellipse transform="matrix(0.9061 -0.423 0.423 0.9061 -66.2784 45.2295)" class="st5" cx="68.8" cy="172" rx="3.9" ry="3.9"/>
		<path class="st2" d="M192.4,139.7c0,0-5.2,4.4-11,3.6c-5.8-0.8-10.4-3.6-10.4-3.6s-10.9,3-12.6,6.6c-1.7,3.6-7,20.9-7,20.9
			s5.8,4.9,11,3.6l3.5-8l-2.5,34.3c0,0,16.3,4.4,33,0l-1.1-33.6l3,7.6c0,0,6.6,0.6,10.6-3.8c0,0-4.9-22-6.6-23.1
			C200.7,143.1,192.4,139.7,192.4,139.7z"/>
		
			<rect x="108.2" y="259.8" transform="matrix(-1 -1.224647e-16 1.224647e-16 -1 334.5912 553.9808)" class="st5" width="118.1" height="34.5"/>
		
			<rect x="117.6" y="266.7" transform="matrix(-1 -1.224647e-16 1.224647e-16 -1 337.3626 554.0378)" class="st7" width="102.2" height="20.7"/>
		<g>
			<path class="st8" d="M185.2,259.3h15.3c0.5,0,0.9-0.4,0.9-0.9v-12.6h-17.1v12.6C184.3,258.9,184.7,259.3,185.2,259.3z"/>
			<g>
				<path class="st8" d="M195.8,244.4C195.8,244.4,195.8,244.4,195.8,244.4c-0.1,0-0.2-0.1-0.1-0.2c5.2-20,10-34.1,13.7-39.8
					c0.1-0.1,0.1-0.2,0.2-0.3c0-0.1,0.1-0.1,0.2-0.1c0.1,0,0.1,0.1,0.1,0.2c0,0.1-0.1,0.2-0.2,0.3c-3.6,5.7-8.5,19.8-13.7,39.7
					C196,244.4,195.9,244.4,195.8,244.4z"/>
				<path class="st8" d="M212.1,203.3c-0.4,0.6-2.7,1.9-2.9,1.8c-0.2-0.1,0.1-2.7,0.6-3.3c0.4-0.6,1.3-0.8,1.9-0.4
					C212.3,201.8,212.5,202.7,212.1,203.3z"/>
				<path class="st8" d="M207.7,205.4c0.3,0.7-0.1,3.4-0.3,3.4c-0.2,0.1-2.1-1.8-2.4-2.5c-0.3-0.7,0.1-1.6,0.9-1.8
					C206.6,204.3,207.4,204.7,207.7,205.4z"/>
				<path class="st8" d="M210.6,209.8c-0.8,0.1-3.2-0.9-3.3-1.1c0-0.2,2.2-1.7,3-1.8c0.8-0.1,1.5,0.5,1.6,1.3
					C212,209,211.4,209.8,210.6,209.8z"/>
				<path class="st8" d="M201.4,218.7c0.6,1.2,0.4,5.6,0.1,5.8c-0.3,0.2-3.9-2.5-4.4-3.7c-0.6-1.2,0-2.6,1.2-3.2
					C199.4,217,200.8,217.5,201.4,218.7z"/>
				<path class="st8" d="M207.1,225.6c-1.3,0.3-5.6-0.9-5.7-1.3c-0.1-0.4,3.3-3.2,4.6-3.5c1.3-0.3,2.6,0.5,2.9,1.9
					C209.2,224,208.4,225.3,207.1,225.6z"/>
				<path class="st8" d="M198.1,223.8c1,1.3,2,6.6,1.6,6.9c-0.4,0.3-5.3-2-6.3-3.3c-1-1.3-0.8-3.1,0.5-4.1
					C195.3,222.3,197.1,222.5,198.1,223.8z"/>
				<path class="st8" d="M206.2,232.8c-1.6,0.2-6.7-1.8-6.7-2.2c0-0.5,4.5-3.5,6.1-3.6c1.6-0.2,3.1,1,3.2,2.6
					C209,231.1,207.8,232.6,206.2,232.8z"/>
				<path class="st8" d="M196.2,230.3c1,1.3,2,6.6,1.6,6.9c-0.4,0.3-5.3-2-6.3-3.3c-1-1.3-0.8-3.1,0.5-4.1
					C193.4,228.8,195.2,229,196.2,230.3z"/>
				<path class="st8" d="M204.3,239.3c-1.6,0.2-6.7-1.8-6.7-2.2c0-0.5,4.5-3.5,6.1-3.6c1.6-0.2,3.1,1,3.2,2.6
					C207.1,237.6,205.9,239.1,204.3,239.3z"/>
				<path class="st8" d="M191.9,238.6c1.4,0.8,4.4,5.4,4.1,5.8c-0.2,0.4-5.6,0.2-7.1-0.6c-1.4-0.8-1.9-2.6-1.1-4
					C188.6,238.3,190.4,237.8,191.9,238.6z"/>
				<path class="st8" d="M202.7,245.7c-1.6,0.4-6.8-0.9-6.9-1.4c-0.1-0.5,4-4,5.6-4.4c1.6-0.4,3.2,0.6,3.6,2.2
					C205.2,243.7,204.3,245.3,202.7,245.7z"/>
				<path class="st8" d="M205.7,209.6c0.3,0.8-0.1,3.4-0.3,3.5c-0.2,0.1-2.2-1.8-2.4-2.5c-0.3-0.8,0.1-1.6,0.9-1.9
					C204.6,208.4,205.5,208.8,205.7,209.6z"/>
				<path class="st8" d="M208.6,214.1c-0.8,0.1-3.3-0.9-3.3-1.1s2.2-1.7,3-1.8c0.8-0.1,1.5,0.5,1.6,1.3
					C210,213.3,209.4,214,208.6,214.1z"/>
				<path class="st8" d="M203.5,213.4c0.5,1,0.2,4.8-0.1,5c-0.3,0.1-3.3-2.3-3.7-3.3c-0.5-1,0-2.3,1.1-2.7
					C201.8,211.9,203,212.4,203.5,213.4z"/>
				<path class="st8" d="M208.1,219.9c-1.1,0.1-4.7-1.3-4.7-1.6c0-0.3,3.2-2.4,4.3-2.5c1.1-0.1,2.2,0.7,2.3,1.8
					C210.1,218.7,209.2,219.8,208.1,219.9z"/>
			</g>
			<g>
				<path class="st5" d="M193.1,246.3C193.1,246.3,193.1,246.3,193.1,246.3c0.1,0,0.2-0.1,0.2-0.2c-2.8-23-6.1-39.5-9.3-46.4
					c-0.1-0.2-0.1-0.3-0.1-0.3c0-0.1-0.1-0.1-0.2-0.1c-0.1,0-0.1,0.1-0.1,0.2c0,0.1,0.1,0.2,0.2,0.4c3.2,6.9,6.5,23.3,9.3,46.3
					C192.9,246.2,193,246.3,193.1,246.3z"/>
				<path class="st5" d="M181.1,198.1c0.4,0.8,2.7,2.5,2.9,2.4c0.2-0.1,0.3-3-0.1-3.8c-0.4-0.8-1.3-1.1-2.1-0.7
					C181,196.4,180.7,197.3,181.1,198.1z"/>
				<path class="st5" d="M185.7,201c-0.4,0.8-0.4,3.8-0.1,3.9c0.2,0.1,2.6-1.6,3-2.4c0.4-0.8,0.1-1.8-0.7-2.2
					C187,199.9,186.1,200.2,185.7,201z"/>
				<path class="st5" d="M181.8,205.5c0.9,0.2,3.7-0.5,3.8-0.7c0.1-0.2-2.2-2.2-3.1-2.4c-0.9-0.2-1.7,0.3-1.9,1.2
					C180.4,204.5,180.9,205.3,181.8,205.5z"/>
				<path class="st5" d="M190.7,216.8c-0.8,1.3-1.3,6.2-0.9,6.4c0.4,0.2,4.7-2.3,5.5-3.5c0.8-1.3,0.4-2.9-0.8-3.7
					C193.2,215.2,191.5,215.6,190.7,216.8z"/>
				<path class="st5" d="M183.3,223.6c1.4,0.5,6.3-0.2,6.5-0.6c0.1-0.4-3.2-4-4.7-4.5c-1.4-0.5-3,0.2-3.5,1.6
					C181.2,221.6,181.9,223.1,183.3,223.6z"/>
				<path class="st5" d="M193.6,223c-1.3,1.3-3.2,7.1-2.8,7.4c0.4,0.4,6.2-1.4,7.5-2.7c1.3-1.3,1.3-3.4,0-4.7
					C197,221.7,194.9,221.7,193.6,223z"/>
				<path class="st5" d="M183.2,231.7c1.8,0.4,7.7-1,7.8-1.5c0.1-0.5-4.5-4.5-6.2-4.9c-1.8-0.4-3.6,0.7-4,2.4
					C180.4,229.5,181.4,231.3,183.2,231.7z"/>
				<path class="st5" d="M194.7,230.5c-1.3,1.3-3.2,7.1-2.8,7.4c0.4,0.4,6.2-1.4,7.5-2.7c1.3-1.3,1.3-3.4,0-4.7
					C198.1,229.2,196,229.2,194.7,230.5z"/>
				<path class="st5" d="M184.4,239.3c1.8,0.4,7.7-1,7.8-1.5c0.1-0.5-4.5-4.5-6.2-4.9c-1.8-0.4-3.6,0.7-4,2.4
					C181.5,237,182.6,238.8,184.4,239.3z"/>
				<path class="st5" d="M198.4,240.4c-1.7,0.7-5.6,5.3-5.5,5.8c0.2,0.5,6.3,1,8,0.3c1.7-0.7,2.5-2.6,1.8-4.3
					C202,240.5,200.1,239.7,198.4,240.4z"/>
				<path class="st5" d="M185.2,246.7c1.7,0.7,7.8,0,7.9-0.5c0.2-0.5-3.9-5-5.6-5.7c-1.7-0.7-3.6,0.2-4.3,1.9
					C182.7,244.1,183.5,246,185.2,246.7z"/>
				<path class="st5" d="M187.2,206c-0.4,0.8-0.4,3.8-0.1,3.9c0.2,0.1,2.7-1.7,3.1-2.5c0.4-0.8,0.1-1.8-0.7-2.2
					C188.6,204.8,187.6,205.2,187.2,206z"/>
				<path class="st5" d="M183.3,210.6c0.9,0.2,3.8-0.5,3.9-0.8c0.1-0.3-2.2-2.2-3.1-2.4c-0.9-0.2-1.8,0.3-2,1.2
					C181.9,209.5,182.5,210.4,183.3,210.6z"/>
				<path class="st5" d="M189.1,210.6c-0.7,1.1-1,5.4-0.6,5.6c0.3,0.2,4-2,4.6-3.1c0.7-1.1,0.3-2.5-0.8-3.2
					C191.2,209.2,189.8,209.5,189.1,210.6z"/>
				<path class="st5" d="M183.1,217.1c1.3,0.3,5.4-0.7,5.5-1.1c0.1-0.4-3.2-3.2-4.4-3.5c-1.3-0.3-2.5,0.5-2.8,1.7
					C181,215.6,181.8,216.8,183.1,217.1z"/>
			</g>
		</g>
	</g>
</g>
<g>
	<path class="st3" d="M84.2,181c-2-1.7-4.3-3.4-5-5.9c-1-3.9,2.5-7.9,1.5-11.8c-0.8-3.1-4.1-4.8-5.7-7.6c-1.5-2.6-1.3-5.7-2-8.6
		c-2.5-9.3-12.9-11.7-21-9c-1.2,0.4-2.4,0.9-3.5,1.6c-3.7,2.1-6.6,5.7-7.2,9.9c-0.5,2.9,0.1,6.3-2.1,8.7c-2,2.2-5.2,2.2-7.8,3.2
		c-2.8,1.1-5.3,3.4-6.2,6.3c-1,3.5,0.2,7.7-2.1,10.4c-1.7,1.9-4.4,2.3-6.6,3.4c-2.4,1.3-4.5,3.3-5.6,5.8c-1.9,4.4-0.4,10.2,3.9,12.7
		c2.2,1.2,4.7,1.5,7.2,1.6c4.8,0.1,9.6-0.7,14.1-2.2c4.4-1.5,8.7-3.8,13.4-4c4.1-0.1,8,1.3,11.9,2.3c3.9,0.9,8,1.3,11.6,3.1
		c1.6,0.8,3.1,1.9,4.7,2.6c1.6,0.7,3.5,1.2,5.2,0.6c1.7-0.6,3-2.4,2.6-4.1c-0.2-0.8-0.7-1.5-0.9-2.2c-1.1-3.5,3.4-6.4,3.6-10
		C88.3,184.9,86.2,182.7,84.2,181z"/>
	<path class="st9" d="M37.7,376.7c0,0-0.4,19.3,1.6,21.5c1.1,1.2,24.1,4.6,24.8,1.5c0.8-3.1-16.6-7.9-17.7-13.6
		c-1.1-5.7-0.3-11.1-0.3-11.1L37.7,376.7z"/>
	<path class="st9" d="M100.2,373.9c0,0,4.3,10.4,5.1,12.2c0.9,1.9,1.6,8.4,3.4,8.7c1.8,0.3,21.7,3.1,22.3-0.2
		c0.6-3.2-17.3-9.2-18.4-11.8c-1.1-2.6-5.1-13.4-5.1-13.4L100.2,373.9z"/>
	<path class="st3" d="M37.5,238.1c0,0-13.7,21.3-15.3,32.5c-1.6,11.2,5.3,53.6,5.1,56.3c-0.2,2.7-1.5,8.9-0.5,13.2
		c1,4.3,7.5,17.3,6.4,20.8c-1.1,3.5,1,20.2,1,20.2l15.1,0.5c0,0-1.3-19.8,1-28.3c2.2-8.5,2.7-22.4,2.9-28.2
		c0.2-5.8,1.5-43.4,1.5-43.4s8.7,18.2,9,20.5c0.3,2.3,0.6,4.3,3.4,12.5c2.8,8.2,9.6,15.1,10.6,18.6c1,3.5,1.3,7,3.1,10.6
		c1.8,3.6,6.4,5.3,8.1,13.9c1.6,8.6,9,20.9,9,20.9l16.9-5.2c0,0-11.3-32.6-11.3-33.8c0-1.2-5.6-7.6-5.2-18.8
		c0.4-11.2-6.1-26.6-7.9-29.4c-1.8-2.8-18-51.7-25.1-55.2C58.4,232.6,37.5,238.1,37.5,238.1z"/>
	<path class="st6" d="M47.6,178.8c-7.9,0-20.2,3.1-27.6,14.5c-7.4,11.4-11,22-11,22l16.7,6.7l2-6.6c0,0,3.6,21.4,7.9,23.3
		c4.3,1.9,7.3-1.2,9.9-1.4c2.6-0.2,11,2.7,18,0.9c7-1.8,7.5-7,8.6-13.1c1.1-6.1,2.4-11.6,2.4-11.6l2.5,2.1l13.9-13
		c0,0-15.2-16.7-23.9-19.6C58.6,180.1,47.6,178.8,47.6,178.8z"/>
	<path class="st9" d="M12.4,216.7c0,0-1.8,18-0.9,26.8c0.8,8.8,9.5,27.9,9.5,27.9l5.8-5.6c0,0-8.4-26.4-3-44.5L12.4,216.7z"/>
	<path class="st9" d="M70.7,160c0,0,1.4-1.4,2.1-0.6c1.8,2.1-0.9,3.8-2.4,4L70.7,160z"/>
	<path class="st9" d="M61,138.2c-6.6-0.8-12.8,3.5-14.4,10c-0.5,2.1-0.5,4.2,0,6.2c0.9,4.9,1.7,8.8,3.1,11.8c1.4,3,1.6,6.5,0.5,9.6
		l-1.1,3.2c6.9,5.2,10.9,2,10.9,2l1.4-7.6l0,0c8.4,0.6,10.1-14.7,10.9-19.2l0,0c0-0.2,0.1-0.3,0.1-0.5
		C73.8,146.3,68.6,139.1,61,138.2z"/>
	<path class="st3" d="M57.5,151.2c-1.9,1.3-3.6,2.9-5.3,4.4c-1.8,1.6-3.7,3.4-4.5,5.7c-1.8-2-2.7-4.6-3.4-7.3
		c-0.3-1.2-0.6-2.4-0.6-3.7c0.1-1.8,0.8-3.4,1.6-5c1-2.1,2-4.2,3.8-5.6c1.2-0.9,2.6-1.5,4.1-1.8c3.4-0.9,7.1-0.9,10.4,0.2
		c3.3,1.1,6.3,3.5,7.9,6.7c2,4.1,1.4,8.9,0.7,13.4c-0.1-1.9-1-3.7-1.9-5.4c-0.6-1.1-1.2-2.2-2.1-3.1c-1.6-1.5-2.1-1.3-4.9-4
		C62,148.2,59.9,149.6,57.5,151.2z"/>
	<path class="st9" d="M49.8,158.8c-0.1-0.5-0.4-0.8-0.8-1.1c-0.8-0.5-2.3-1.2-3.6-0.3c-1.9,1.3,0.5,6.1,4.1,4.6
		C49.4,161.9,50.5,161.2,49.8,158.8z"/>
	
		<ellipse transform="matrix(0.2782 -0.9605 0.9605 0.2782 -104.4481 179.8619)" class="st10" cx="67.4" cy="159.4" rx="1.2" ry="1.2"/>
	
		<ellipse transform="matrix(0.2782 -0.9605 0.9605 0.2782 -111.5676 168.7731)" class="st10" cx="56.5" cy="158.6" rx="1.2" ry="1.2"/>
	<path class="st11" d="M64.5,167.5c0,0-0.9-0.8-1.5-0.8c-0.6,0.1-1,0.7-1,0.7s-0.3-0.8-1-0.9c-0.7-0.1-2.8,0.2-2.8,0.2
		s1.4,3.3,3.6,3C64.1,169.6,64.5,167.6,64.5,167.5L64.5,167.5z"/>
	<path class="st12" d="M62.4,168.5c-2.5,0.2-4.6-1.9-4.7-1.9c-0.1-0.1-0.1-0.2,0-0.2c0.1-0.1,0.2-0.1,0.2,0c0.1,0.1,3.5,3.4,6.6,0.9
		c0.1-0.1,0.2,0,0.2,0c0.1,0.1,0,0.2,0,0.2C64,168.1,63.2,168.4,62.4,168.5z"/>
	<path class="st10" d="M54.2,156.6c-0.1,0-0.3-0.1-0.3-0.3c-0.1-0.2,0-0.5,0.2-0.6c0.1,0,1.8-0.8,3.8-0.2c0.3,0.1,0.4,0.3,0.3,0.6
		c-0.1,0.3-0.4,0.4-0.6,0.3c-1.7-0.5-3.1,0.2-3.2,0.2C54.4,156.6,54.3,156.6,54.2,156.6z"/>
	<path class="st10" d="M66.1,156.8c-0.1-0.1-0.2-0.2-0.3-0.3c-0.1-0.3,0.1-0.5,0.3-0.6c0.1,0,1.9-0.5,3.8,0.4
		c0.2,0.1,0.3,0.4,0.2,0.6c-0.1,0.2-0.4,0.3-0.6,0.2c-1.6-0.8-3.1-0.4-3.1-0.4C66.3,156.9,66.2,156.9,66.1,156.8z"/>
	<path class="st11" d="M61.9,164.2c1.4,0,2-0.9,2.2-1.4c0-0.1,0-0.2,0-0.3c-0.9-1.7-0.4-3.8-0.4-3.8c0.1-0.2-0.1-0.4-0.3-0.5
		c-0.2-0.1-0.4,0.1-0.5,0.3c0,0.1-0.6,2.3,0.4,4.3c-0.1,0.3-0.6,0.9-1.9,0.6c-0.2-0.1-0.4,0.1-0.5,0.3c-0.1,0.2,0.1,0.4,0.3,0.5
		C61.5,164.2,61.7,164.2,61.9,164.2z"/>
	<path class="st3" d="M74.6,213.6c0.1,0,0.1,0,0.1-0.1c0.7-5.8-3.5-14.1-3.5-14.2c0,0-0.1-0.1-0.1,0c-0.1,0-0.1,0.1,0,0.1
		c0,0.1,4.2,8.3,3.5,14C74.5,213.5,74.6,213.6,74.6,213.6C74.6,213.6,74.6,213.6,74.6,213.6z"/>
	<path class="st3" d="M42.4,216.3c4.9,0.2,9.2-2.5,9.2-2.6c0,0,0.1-0.1,0-0.1c0,0-0.1-0.1-0.1,0c-0.1,0.1-8.2,5.2-14.9,0.7
		c0,0-0.1,0-0.1,0c0,0,0,0.1,0,0.1C38.5,215.8,40.5,216.3,42.4,216.3z"/>
	<path class="st3" d="M37.9,390.7c11.6,6.4,15.6,4.5,16.9,2.6c4.7,2.5,9.6,4.7,9.2,6.4c-0.8,3.1-23.7-0.3-24.8-1.5
		C38.5,397.4,38.1,394.3,37.9,390.7z"/>
	<path class="st3" d="M122.4,388.5c4.6,2.2,9,4.6,8.7,6.2c-0.6,3.2-20.4,0.5-22.3,0.2c-1.7-0.3-2.4-5.7-3.2-8.1
		C115.3,392.7,120.4,390.1,122.4,388.5z"/>
	<path class="st9" d="M25.4,264.5c0,0,5.2,3.7,6.7,5.5c1.6,1.8,4.4,2.3,3.7,3.5c-0.7,1.2-4.8-0.7-4.8-0.7s1.2,4.6,1.8,6
		c0.6,1.4,1,4.1,0.1,4.6c-1,0.5-3.3-6.2-3.3-6.2s1.4,5.9,0.6,6.5c-0.8,0.7-3.7-6.6-3.7-6.6s1.8,6.2,1.6,6.8
		c-0.3,0.6-1.1,0.3-2.3-1.8c-1.2-2-1.9-4.4-1.9-4.4s1,4.5,0.9,5c-0.1,0.6-0.6,1.3-2-1.9c-1.4-3.2-3.4-10.6-2.9-14.7L25.4,264.5z"/>
	<path class="st9" d="M122.9,198.9c0,0,1.7-6.1,2.8-8.2c1.1-2.1,0.6-4.9,2-4.7c1.3,0.2,1,4.7,1,4.7s3.9-2.7,5-3.8
		c1.1-1,3.5-2.4,4.3-1.6c0.8,0.7-4.7,5.3-4.7,5.3s5-3.4,5.9-2.9c0.9,0.5-4.9,5.8-4.9,5.8s5.2-3.9,5.8-3.8c0.7,0.1,0.6,0.9-0.9,2.7
		c-1.5,1.8-3.5,3.3-3.5,3.3s3.8-2.5,4.4-2.6c0.6-0.1,1.4,0.1-1.1,2.6c-2.5,2.5-8.8,6.9-12.8,7.8L122.9,198.9z"/>
	<path class="st9" d="M80,213c0,0,12.2,15.7,22.7,14.4c10.5-1.3,25.5-26.1,25.5-26.1l-4.9-3.2c0,0-16.3,16.6-21.7,15.3
		c-5.4-1.3-12.9-8.4-12.9-8.4L80,213z"/>
</g>
<g>
	<path class="st9" d="M276.5,187.4c0,0-26,24.5-43.9,27.3l3,8.5c0,0,34.7-6.7,49.9-28.7L276.5,187.4z"/>
	<g>
		<path class="st5" d="M268.4,388.9H144.6c-0.2,0-0.3-0.1-0.3-0.3V242.4c0-0.2,0.1-0.3,0.3-0.3h123.8c0.2,0,0.3,0.1,0.3,0.3v146.2
			C268.7,388.7,268.6,388.9,268.4,388.9z"/>
		<circle class="st13" cx="164.7" cy="255.3" r="4.4"/>
		<circle class="st13" cx="183.5" cy="255.3" r="4.4"/>
		<circle class="st13" cx="203.3" cy="255.3" r="4.4"/>
		<circle class="st13" cx="222.5" cy="255.3" r="4.4"/>
		
			<rect x="238.7" y="249.2" transform="matrix(-1 -1.224647e-16 1.224647e-16 -1 500.3058 511.3404)" class="st3" width="22.8" height="12.9"/>
		<g>
			<circle class="st3" cx="206.5" cy="322.5" r="47.6"/>
			<path class="st13" d="M155.4,322.5c0-28.1,22.9-51,51-51c28.1,0,51,22.9,51,51s-22.9,51-51,51
				C178.3,373.6,155.4,350.7,155.4,322.5z M162.3,322.5c0,24.4,19.8,44.2,44.2,44.2c24.4,0,44.2-19.8,44.2-44.2
				c0-24.4-19.8-44.2-44.2-44.2C182.1,278.4,162.3,298.2,162.3,322.5z"/>
		</g>
		<path class="st13" d="M177.1,339.1h-14.8v-31.4h14.8c0.4,0,0.7,0.3,0.7,0.7v29.9C177.8,338.8,177.5,339.1,177.1,339.1z"/>
	</g>
	<path class="st9" d="M294.5,365.3c0,0,0.2,13.4,0.1,13.6c-0.1,0.2,1,1.9,1,1.9l4.2,0.8l3.9-1.8c0,0-0.3-12.5,0.1-14.5
		S294.5,365.3,294.5,365.3z"/>
	<path class="st3" d="M303.7,379.8c0,0-4.9,1.7-9.1-1.1c0,0-16.3,6.1-15.8,10.7c0,0-0.7,1.4,6.4,1.1c7.1-0.3,18-0.6,18.3-0.8
		C303.8,389.5,305.2,390.3,303.7,379.8z"/>
	<path class="st9" d="M344.5,361.6c0,0,4.4,12.7,4.4,12.9c0,0.2,1.5,1.5,1.5,1.5l4.3-0.6l3.1-2.9c0,0-4.3-11.7-4.5-13.7
		C353.1,356.7,344.5,361.6,344.5,361.6z"/>
	<path class="st3" d="M357.8,372.5c0,0-4.1,3.2-9,1.8c0,0-13.5,10.9-11.6,15.2c0,0-0.2,1.5,6.4-1c6.6-2.5,16.9-6.3,17.1-6.5
		C361,381.7,362.6,382,357.8,372.5z"/>
	<path class="st2" d="M292.8,169.3c7.7-4.1,40.7-1.5,49.5,6.7l-3.1,66.8l-52.1-2.7l-1.6-45.6C285.5,194.5,285,173.4,292.8,169.3z"/>
	<path class="st3" d="M339.4,236.6H334l-3.4-44.1h-41.8l-4.1,48c0,0-6.4,39.7,4.9,133.5h17c0,0,3.6-96.7,6.7-102.2
		c3.1-5.6,13.9,60.5,30.9,100.2l15.5-4.6c0,0-13.9-69.6-16-87.7C341.8,261.6,339.4,236.6,339.4,236.6z"/>
	<polygon class="st6" points="330.7,192.5 330.7,170.5 326.2,169.5 324.6,193.7 	"/>
	<path class="st6" d="M288.9,193l3.9-23.7c0,0,2.3-1,4.6-1.3l-4.2,24.6L288.9,193z"/>
	<polygon class="st6" points="295,202 323.5,202 323.5,224.3 309.3,230.9 295,224.3 	"/>
	<path class="st2" d="M292.8,169.3c0,0-6.7,1.9-22.5,20.7l11.2,11.9l5-3.9c0,0,2.6-17.8,2.7-18.6
		C289.4,178.6,292.8,169.3,292.8,169.3z"/>
	<g>
		<path class="st14" d="M208.2,217.7c0.6,0,1.1-0.5,1.1-1.1v-14h24.2v13.1c0,0.6,0.5,1.1,1.1,1.1c0.6,0,1.1-0.5,1.1-1.1v-14.3
			c0-0.6-0.5-1.1-1.1-1.1h-26.5c-0.6,0-1.1,0.5-1.1,1.1v15.1C207.1,217.2,207.6,217.7,208.2,217.7z"/>
		<path class="st4" d="M196,214h50.9v27.8c0,0.1-0.1,0.2-0.2,0.2h-50.4c-0.1,0-0.2-0.1-0.2-0.2V214z"/>
		
			<rect x="194.1" y="212.9" transform="matrix(-1 -1.224647e-16 1.224647e-16 -1 442.8083 431.5411)" class="st14" width="54.5" height="5.8"/>
		
			<rect x="212.2" y="217.1" transform="matrix(-1 -1.224647e-16 1.224647e-16 -1 442.9042 437.8014)" class="st4" width="18.6" height="3.6"/>
	</g>
	<path class="st9" d="M349.6,202c0,0,11.5,23.4-4.4,66.2l-6.2-2c0,0,6.8-33.7-2.2-62.7L349.6,202z"/>
	<path class="st2" d="M342.3,176c0,0,4.8,2.8,11.1,34.3h-15.4l-4.1-5.3L342.3,176z"/>
	<path class="st9" d="M338.9,266.2c0,0-4.1,4.8-5.3,6.9c-1.1,2.1-3.7,3.3-2.8,4.3c0.9,1,4.5-1.8,4.5-1.8s-0.1,4.8-0.3,6.3
		c-0.3,1.5,0,4.2,1,4.5c1.1,0.3,1.8-6.9,1.8-6.9s0,6.1,0.9,6.5c0.9,0.5,2.1-7.3,2.1-7.3s-0.3,6.5,0.1,7c0.4,0.5,1.1,0,1.8-2.2
		c0.7-2.3,0.8-4.7,0.8-4.7s0.1,4.6,0.3,5.1c0.2,0.5,0.9,1.1,1.5-2.3c0.6-3.5,0.8-11.2-0.7-15L338.9,266.2z"/>
	<g>
		<g>
			<path class="st9" d="M299,145.7c0,0-0.9-1.6-1.8-1.1c-2.2,1.5-0.3,3.7,1.1,4.2L299,145.7z"/>
			<path class="st9" d="M299,139.9L299,139.9c0-0.2,0-0.3,0-0.5c0.6-7.3,7.1-12.6,14.5-11.6c6.1,0.9,10.8,6.1,10.9,12.3
				c0,2.3-0.5,4.4-1.5,6.3c-1.4,2.9-2.6,5.3-3.9,7.3c-2.1,3.3-2.9,7.3-2.6,11.2l0.3,3.1c-8.1,3.5-11.3-0.6-11.3-0.6l0.3-5.6
				c0-0.7-0.5-1.4-1.2-1.5c0,0,0,0,0,0C294.8,159,298.7,144.2,299,139.9z"/>
			
				<ellipse transform="matrix(7.581055e-02 -0.9971 0.9971 7.581055e-02 141.7963 448.2102)" class="st3" cx="312.7" cy="147.6" rx="1.2" ry="1.2"/>
			
				<ellipse transform="matrix(7.570897e-02 -0.9971 0.9971 7.570897e-02 135.1871 435.2885)" class="st3" cx="302.4" cy="144.7" rx="1.2" ry="1.2"/>
			<path class="st3" d="M315.9,146c0.1,0,0.2,0,0.4-0.1c0.3-0.2,0.5-0.6,0.3-0.9c-0.5-1-2.2-2.7-4.9-1.6c-0.4,0.1-0.5,0.5-0.4,0.9
				c0.1,0.4,0.5,0.5,0.9,0.4c2.2-0.9,3.2,0.8,3.2,0.9C315.4,145.9,315.6,146,315.9,146z"/>
			<path class="st3" d="M305,143.3c0.1,0,0.2,0,0.4-0.1c0.3-0.2,0.5-0.6,0.3-0.9c-0.5-1-2.2-2.7-4.9-1.6c-0.4,0.1-0.5,0.5-0.4,0.9
				c0.1,0.4,0.5,0.5,0.9,0.4c2.2-0.9,3.2,0.8,3.2,0.9C304.5,143.2,304.7,143.3,305,143.3z"/>
			<polygon class="st3" points="325.4,142.3 321.3,150.6 319,149.9 318.5,138.8 			"/>
			<path class="st9" d="M318.7,149.6c0.2-0.4,0.6-0.7,1.1-0.8c0.9-0.3,2.5-0.6,3.4,0.6c1.4,1.7-2,5.5-4.9,3.3
				C318.3,152.7,317.4,151.7,318.7,149.6z"/>
			<path class="st11" d="M305.1,151.3c1.1,0.6,2.1,0.1,2.2,0.1c0.1-0.1,0.1-0.2,0.1-0.3c-0.1-0.1-0.2-0.1-0.3-0.1
				c0,0-1.2,0.6-2.3-0.5c-0.2-0.2-0.3-0.3-0.3-0.4c0-0.1,0.2-0.3,0.4-0.5c0.6-0.5,1.5-1.4,2-3.6c0-0.1,0-0.2-0.2-0.2
				c-0.1,0-0.2,0-0.2,0.2c-0.4,2-1.3,2.8-1.9,3.4c-0.3,0.3-0.6,0.5-0.6,0.8c0,0.2,0.1,0.4,0.4,0.7
				C304.7,151,304.9,151.2,305.1,151.3z"/>
			<path class="st5" d="M309.7,153.8c0,0-4.8,0.2-7.8-1.4c0,0,0.5,3.7,3.2,4.3C308,157.2,309.7,153.8,309.7,153.8z"/>
			<path class="st3" d="M301.4,135.1c0,0-1.9,1.1-2.9,8.8c0,0,0.6-8.5,1.6-9.4C301.1,133.7,301.4,135.1,301.4,135.1z"/>
		</g>
		<path class="st3" d="M300.6,133.2c0,0,4.1-10.1,16.6-6.4c12.5,3.7,8.1,15.6,8.1,15.6s-8.4-4.2-10.1-4.8
			C313.5,136.8,300.6,133.2,300.6,133.2z"/>
		<path class="st3" d="M319.6,139.3c0,0-13.3-10.3-22.9-8.5c-9.6,1.7,2.7,6,2.7,6S301,133.1,319.6,139.3z"/>
	</g>
</g>
<g>
	<g>
		<path class="st14" d="M395.9,347.7C395.9,347.7,396,347.7,395.9,347.7c0.1,0,0.2-0.1,0.2-0.2c-6.6-25.4-12.8-43.4-17.4-50.7
			c-0.1-0.2-0.2-0.3-0.2-0.3c0-0.1-0.2-0.1-0.2-0.1c-0.1,0-0.1,0.2-0.1,0.2c0,0.1,0.1,0.2,0.2,0.4c4.6,7.2,10.8,25.2,17.4,50.6
			C395.8,347.7,395.8,347.7,395.9,347.7z"/>
		<path class="st14" d="M375.3,295.4c0.6,0.8,3.4,2.4,3.7,2.2c0.2-0.2-0.2-3.4-0.7-4.2c-0.6-0.8-1.7-1-2.5-0.5
			C374.9,293.5,374.7,294.6,375.3,295.4z"/>
		<path class="st14" d="M380.9,298c-0.3,1,0.2,4.3,0.4,4.4c0.3,0.1,2.7-2.2,3-3.2c0.3-1-0.2-2-1.1-2.3
			C382.2,296.6,381.2,297.1,380.9,298z"/>
		<path class="st14" d="M377.1,303.6c1,0.1,4.1-1.1,4.2-1.4c0-0.3-2.8-2.1-3.8-2.2c-1-0.1-1.9,0.6-2,1.6
			C375.4,302.6,376.1,303.5,377.1,303.6z"/>
		<path class="st14" d="M388.8,315c-0.7,1.5-0.5,7.2-0.1,7.4c0.4,0.2,4.9-3.2,5.6-4.8c0.7-1.5,0.1-3.4-1.5-4.1
			C391.4,312.8,389.6,313.5,388.8,315z"/>
		<path class="st14" d="M381.6,323.7c1.7,0.4,7.1-1.1,7.2-1.6s-4.3-4-5.9-4.4c-1.7-0.4-3.3,0.7-3.6,2.4
			C378.9,321.7,380,323.4,381.6,323.7z"/>
		<path class="st14" d="M393,321.5c-1.3,1.6-2.5,8.4-2.1,8.8c0.5,0.4,6.7-2.5,8-4.2c1.3-1.6,1-4-0.7-5.3
			C396.6,319.5,394.3,319.8,393,321.5z"/>
		<path class="st14" d="M382.7,332.8c2.1,0.2,8.5-2.3,8.6-2.8c0.1-0.6-5.7-4.4-7.7-4.6c-2.1-0.2-3.9,1.3-4.1,3.3
			C379.2,330.8,380.6,332.6,382.7,332.8z"/>
		<path class="st14" d="M395.4,329.7c-1.3,1.6-2.5,8.4-2.1,8.8c0.5,0.4,6.7-2.5,8-4.2c1.3-1.6,1-4-0.7-5.3
			C399,327.8,396.7,328.1,395.4,329.7z"/>
		<path class="st14" d="M385.1,341.1c2.1,0.2,8.5-2.3,8.6-2.8s-5.7-4.4-7.7-4.6c-2.1-0.2-3.9,1.3-4.1,3.3
			C381.6,339.1,383.1,340.9,385.1,341.1z"/>
		<path class="st14" d="M401,340.3c-1.8,1-5.5,6.8-5.3,7.3c0.3,0.5,7.2,0.2,9-0.8c1.8-1,2.4-3.3,1.4-5.1
			C405.1,339.9,402.8,339.2,401,340.3z"/>
		<path class="st14" d="M387.2,349.3c2,0.5,8.7-1.2,8.8-1.8c0.1-0.6-5.1-5.1-7.1-5.5c-2-0.5-4,0.8-4.5,2.8
			C383.9,346.8,385.2,348.8,387.2,349.3z"/>
		<path class="st14" d="M383.3,303.3c-0.3,1,0.2,4.3,0.4,4.4c0.3,0.1,2.7-2.3,3.1-3.2c0.3-1-0.2-2-1.2-2.4
			C384.7,301.8,383.7,302.3,383.3,303.3z"/>
		<path class="st14" d="M379.7,309.1c1,0.1,4.2-1.1,4.2-1.4c0-0.3-2.8-2.2-3.8-2.3c-1-0.1-1.9,0.6-2,1.7
			C377.9,308.1,378.6,309,379.7,309.1z"/>
		<path class="st14" d="M386.2,308.2c-0.6,1.3-0.3,6.2,0.1,6.3c0.4,0.2,4.1-2.9,4.7-4.2c0.6-1.3,0-2.9-1.4-3.5
			C388.3,306.3,386.8,306.9,386.2,308.2z"/>
		<path class="st14" d="M380.3,316.4c1.4,0.2,6-1.6,6-2c0-0.4-4-3.1-5.5-3.2c-1.4-0.2-2.7,0.9-2.9,2.4
			C377.8,315,378.9,316.3,380.3,316.4z"/>
	</g>
	<g>
		<path class="st4" d="M408.9,342.1C408.9,342.1,408.9,342.1,408.9,342.1c0.2,0,0.3-0.2,0.3-0.3c-4.9-40.6-10.8-69.7-16.5-81.8
			c-0.1-0.3-0.2-0.5-0.2-0.6c0-0.1-0.2-0.2-0.4-0.2c-0.1,0-0.2,0.2-0.2,0.4c0,0.1,0.1,0.3,0.3,0.6c5.7,12.1,11.5,41.1,16.4,81.7
			C408.6,342,408.7,342.1,408.9,342.1z"/>
		<path class="st4" d="M387.7,257.1c0.7,1.4,4.8,4.4,5.2,4.2c0.4-0.2,0.5-5.3-0.2-6.7c-0.7-1.4-2.4-1.9-3.7-1.3
			C387.6,254,387.1,255.7,387.7,257.1z"/>
		<path class="st4" d="M395.8,262.3c-0.7,1.4-0.6,6.6-0.2,6.8c0.4,0.2,4.6-2.9,5.3-4.3c0.7-1.4,0.1-3.1-1.3-3.8
			C398.2,260.3,396.5,260.9,395.8,262.3z"/>
		<path class="st4" d="M388.9,270.2c1.5,0.4,6.6-0.9,6.7-1.3c0.1-0.4-3.9-3.9-5.4-4.2c-1.5-0.4-3.1,0.6-3.4,2.1
			C386.4,268.3,387.4,269.9,388.9,270.2z"/>
		<path class="st4" d="M404.6,290.2c-1.4,2.2-2.3,11-1.6,11.4c0.6,0.4,8.2-4,9.7-6.2c1.4-2.2,0.8-5.2-1.4-6.6
			C409,287.3,406.1,287.9,404.6,290.2z"/>
		<path class="st4" d="M391.7,302.1c2.5,0.9,11.2-0.3,11.4-1c0.3-0.7-5.7-7.1-8.2-8c-2.5-0.9-5.2,0.4-6.1,2.9
			C387.9,298.5,389.2,301.3,391.7,302.1z"/>
		<path class="st4" d="M409.7,301c-2.3,2.3-5.6,12.5-5,13.1c0.6,0.7,10.9-2.5,13.2-4.8c2.3-2.3,2.3-6,0.1-8.3
			C415.7,298.7,412,298.7,409.7,301z"/>
		<path class="st4" d="M391.5,316.4c3.1,0.8,13.6-1.7,13.8-2.6c0.2-0.9-7.9-8-11-8.7c-3.1-0.8-6.3,1.2-7.1,4.3
			C386.4,312.5,388.4,315.7,391.5,316.4z"/>
		<path class="st4" d="M411.8,314.3c-2.3,2.3-5.6,12.5-5,13.1c0.6,0.7,10.9-2.5,13.2-4.8c2.3-2.3,2.3-6,0.1-8.3
			C417.8,312,414.1,312,411.8,314.3z"/>
		<path class="st4" d="M393.5,329.7c3.1,0.8,13.6-1.7,13.8-2.6c0.2-0.9-7.9-8-11-8.7c-3.1-0.8-6.3,1.2-7.1,4.3
			C388.5,325.8,390.4,329,393.5,329.7z"/>
		<path class="st4" d="M418.2,331.7c-3,1.2-10,9.4-9.6,10.2c0.3,0.9,11,1.8,14,0.6c3-1.2,4.4-4.6,3.2-7.6
			C424.6,331.9,421.2,330.5,418.2,331.7z"/>
		<path class="st4" d="M395.1,342.8c3,1.2,13.7,0,14-0.9c0.3-0.9-6.8-8.9-9.8-10c-3-1.2-6.4,0.4-7.6,3.4
			C390.5,338.3,392.1,341.7,395.1,342.8z"/>
		<path class="st4" d="M398.5,271c-0.7,1.4-0.6,6.7-0.2,6.9c0.4,0.2,4.7-2.9,5.4-4.4c0.7-1.4,0.1-3.2-1.3-3.9
			C401,269,399.2,269.5,398.5,271z"/>
		<path class="st4" d="M391.7,279.2c1.6,0.4,6.7-0.9,6.8-1.3c0.1-0.4-3.9-3.9-5.5-4.3c-1.6-0.4-3.1,0.6-3.5,2.1
			C389.2,277.2,390.1,278.8,391.7,279.2z"/>
		<path class="st4" d="M401.9,279.2c-1.2,1.9-1.7,9.5-1.1,9.8c0.6,0.3,7-3.6,8.2-5.5c1.2-1.9,0.6-4.5-1.4-5.6
			C405.6,276.6,403.1,277.2,401.9,279.2z"/>
		<path class="st4" d="M391.2,290.6c2.2,0.5,9.5-1.3,9.7-1.9c0.2-0.6-5.6-5.6-7.8-6.1c-2.2-0.5-4.4,0.8-5,3
			C387.6,287.9,389,290.1,391.2,290.6z"/>
	</g>
	<g>
		<path class="st14" d="M418.9,346.1C418.9,346.1,418.8,346.1,418.9,346.1c-0.2,0-0.4-0.2-0.3-0.4c5.6-46.1,12.3-79.1,18.7-92.9
			c0.1-0.3,0.2-0.5,0.3-0.6c0.1-0.2,0.2-0.3,0.4-0.2c0.2,0.1,0.3,0.2,0.2,0.4c0,0.1-0.1,0.4-0.3,0.7c-6.4,13.8-13.1,46.7-18.7,92.7
			C419.1,346,419,346.1,418.9,346.1z"/>
		<path class="st14" d="M442.8,249.5c-0.8,1.6-5.5,5-5.9,4.8c-0.4-0.2-0.5-6,0.2-7.6c0.8-1.6,2.7-2.2,4.2-1.4
			C443,246.1,443.6,248,442.8,249.5z"/>
		<path class="st14" d="M433.7,255.4c0.8,1.6,0.7,7.5,0.3,7.8c-0.5,0.2-5.2-3.3-6-4.9c-0.8-1.6-0.1-3.5,1.4-4.3
			C430.9,253.2,432.9,253.8,433.7,255.4z"/>
		<path class="st14" d="M441.5,264.4c-1.7,0.4-7.5-1-7.6-1.5c-0.1-0.5,4.4-4.4,6.1-4.8c1.7-0.4,3.5,0.7,3.9,2.4
			C444.3,262.3,443.3,264,441.5,264.4z"/>
		<path class="st14" d="M423.6,287.1c1.6,2.5,2.6,12.4,1.8,12.9s-9.3-4.5-11-7c-1.6-2.5-0.9-5.9,1.6-7.5
			C418.7,283.8,422,284.5,423.6,287.1z"/>
		<path class="st14" d="M438.4,300.7c-2.8,1-12.7-0.3-13-1.1c-0.3-0.8,6.5-8.1,9.3-9.1c2.8-1,5.9,0.5,6.9,3.3
			C442.7,296.6,441.2,299.7,438.4,300.7z"/>
		<path class="st14" d="M417.9,299.3c2.6,2.6,6.4,14.2,5.7,14.9c-0.7,0.7-12.4-2.9-15-5.5c-2.6-2.6-2.6-6.8-0.1-9.4
			C411,296.8,415.3,296.8,417.9,299.3z"/>
		<path class="st14" d="M438.6,316.9c-3.6,0.9-15.4-2-15.7-3c-0.2-1,8.9-9,12.5-9.9c3.6-0.9,7.2,1.3,8,4.9
			C444.3,312.4,442.1,316,438.6,316.9z"/>
		<path class="st14" d="M415.6,314.5c2.6,2.6,6.4,14.2,5.7,14.9c-0.7,0.7-12.4-2.9-15-5.5c-2.6-2.6-2.6-6.8-0.1-9.4
			C408.8,311.9,413,311.9,415.6,314.5z"/>
		<path class="st14" d="M436.3,332c-3.6,0.9-15.4-2-15.7-3c-0.2-1,8.9-9,12.5-9.9c3.6-0.9,7.2,1.3,8,4.9
			C442,327.5,439.9,331.1,436.3,332z"/>
		<path class="st14" d="M408.3,334.2c3.4,1.4,11.3,10.7,10.9,11.6c-0.4,1-12.5,2.1-15.9,0.7c-3.4-1.4-5-5.3-3.6-8.7
			S404.9,332.8,408.3,334.2z"/>
		<path class="st14" d="M434.5,346.9c-3.4,1.3-15.5,0-15.9-1c-0.4-1,7.7-10.1,11.2-11.4c3.4-1.3,7.3,0.4,8.6,3.8
			C439.7,341.7,438,345.6,434.5,346.9z"/>
		<path class="st14" d="M430.6,265.3c0.8,1.6,0.7,7.7,0.3,7.9c-0.5,0.2-5.3-3.3-6.1-5c-0.8-1.6-0.2-3.6,1.5-4.4
			C427.8,263,429.8,263.7,430.6,265.3z"/>
		<path class="st14" d="M438.4,274.6c-1.8,0.4-7.6-1-7.7-1.5c-0.1-0.5,4.4-4.4,6.2-4.9c1.8-0.4,3.5,0.7,4,2.4
			C441.2,272.4,440.1,274.1,438.4,274.6z"/>
		<path class="st14" d="M426.8,274.6c1.3,2.2,1.9,10.8,1.3,11.1c-0.6,0.4-7.9-4.1-9.3-6.3c-1.3-2.2-0.6-5.1,1.6-6.4
			C422.6,271.7,425.4,272.4,426.8,274.6z"/>
		<path class="st14" d="M438.9,287.6c-2.5,0.6-10.8-1.4-11-2.2c-0.2-0.7,6.3-6.3,8.8-6.9c2.5-0.6,5,0.9,5.6,3.4
			C443,284.5,441.4,287,438.9,287.6z"/>
	</g>
	<path class="st3" d="M418.3,387.8h-14.4c-11.3,0-20.5-9.2-20.5-20.5v-22.2h54v23.6C437.4,379.3,428.8,387.8,418.3,387.8z"/>
</g>
</svg>
